<svg width="859" height="187" viewBox="0 0 859 187" fill="none" xmlns="http://www.w3.org/2000/svg">
<rect width="859" height="187" fill="#E5E5E5"/>
<rect width="859" height="187" fill="#1F2937"/>
<path d="M123.568 115.632C122.16 116.357 120.112 117.04 117.424 117.68C114.779 118.277 112.069 118.576 109.296 118.576C102.341 118.576 97.0933 116.528 93.552 112.432C90.0107 108.336 88.24 103.131 88.24 96.816C88.24 91.952 89.2427 87.6213 91.248 83.824C93.5947 79.344 97.1147 76.2293 101.808 74.48C104.411 73.5413 107.12 73.072 109.936 73.072C112.752 73.072 115.461 73.2853 118.064 73.712C120.667 74.1387 122.373 74.5227 123.184 74.864C123.44 76.4427 123.568 78.1067 123.568 79.856C123.568 81.5627 123.525 83.4827 123.44 85.616L119.792 86.128C118.853 81.1787 118.021 78.448 117.296 77.936C116.912 77.6373 115.909 77.3173 114.288 76.976C112.709 76.6347 111.131 76.464 109.552 76.464C104.859 76.464 101.317 78.192 98.928 81.648C96.5387 85.104 95.344 89.648 95.344 95.28C95.344 101.936 96.8587 106.885 99.888 110.128C102.917 113.371 106.672 114.992 111.152 114.992C113.499 114.992 115.568 114.651 117.36 113.968V105.072C117.36 103.749 117.104 102.853 116.592 102.384C116.123 101.915 114.757 101.488 112.496 101.104L112.88 98.608H127.856L128.112 101.104L124.848 101.872C123.995 102.043 123.568 102.597 123.568 103.536V115.632ZM132.571 118L132.187 115.504C134.277 115.077 135.536 114.651 135.963 114.224C136.432 113.755 136.667 112.965 136.667 111.856V93.488C136.667 92.592 136.325 91.952 135.643 91.568C134.96 91.1413 133.68 90.736 131.803 90.352L132.187 88.304C136.752 87.7067 139.931 87.408 141.723 87.408L142.427 88.048V113.392C142.427 113.904 142.533 114.245 142.747 114.416C143.003 114.544 143.323 114.651 143.707 114.736L146.843 115.504L146.587 118H132.571ZM142.491 76.016C142.491 77.0827 142.149 77.9787 141.467 78.704C140.827 79.4293 139.952 79.792 138.843 79.792C137.776 79.792 136.88 79.472 136.155 78.832C135.472 78.192 135.131 77.3173 135.131 76.208C135.131 75.056 135.451 74.1387 136.091 73.456C136.773 72.7733 137.691 72.432 138.843 72.432C141.275 72.432 142.491 73.6267 142.491 76.016ZM176.447 70.064C176.447 73.3067 176.17 75.888 175.615 77.808L172.223 78.128C171.54 74.672 171.028 72.8373 170.687 72.624C170.004 72.1973 169.108 71.984 167.999 71.984C164.33 71.984 162.495 77.3813 162.495 88.176H175.295C176.575 88.176 177.322 87.6853 177.535 86.704C177.535 86.2347 177.727 85.2107 178.111 83.632C178.538 82.0107 178.858 80.6453 179.071 79.536L182.975 79.152V88.176H191.807L191.295 91.184L182.975 92.144V107.312C182.975 111.749 184.34 113.968 187.071 113.968C188.607 113.968 190.228 113.328 191.935 112.048L193.279 113.904C190.975 117.019 188.159 118.576 184.831 118.576C182.442 118.576 180.564 117.744 179.199 116.08C177.876 114.416 177.215 112.133 177.215 109.232V91.632C170.815 91.632 165.908 91.8027 162.495 92.144V113.392C162.495 113.819 162.58 114.139 162.751 114.352C162.922 114.523 163.306 114.651 163.903 114.736L168.703 115.504L168.447 118H152.639L152.255 115.504C154.346 115.077 155.604 114.651 156.031 114.224C156.5 113.755 156.735 112.965 156.735 111.856V92.08H152.575L152.319 89.328L155.455 88.56C156.01 88.432 156.372 88.1973 156.543 87.856C156.714 87.5147 156.82 86.9387 156.863 86.128C156.906 85.3173 156.97 84.528 157.055 83.76C157.183 82.992 157.375 81.8187 157.631 80.24C157.887 78.6613 158.292 77.2747 158.847 76.08C159.444 74.8853 160.17 73.6693 161.023 72.432C162.815 69.872 165.524 68.592 169.151 68.592C171.455 68.592 173.887 69.0827 176.447 70.064ZM213.075 118L212.691 115.504C214.952 115.12 216.318 114.693 216.787 114.224C217.299 113.755 217.555 112.859 217.555 111.536V80.112C217.555 78.7893 217.299 77.8933 216.787 77.424C216.318 76.9547 214.952 76.528 212.691 76.144L213.075 73.648H228.755L229.011 76.144L225.043 76.912C224.19 77.0827 223.763 77.6373 223.763 78.576V113.072C223.763 114.011 224.19 114.565 225.043 114.736L229.011 115.504L228.755 118H213.075ZM234.446 118L234.062 115.504C236.152 115.077 237.411 114.651 237.838 114.224C238.307 113.755 238.542 112.965 238.542 111.856V93.424C238.542 92.3147 238.264 91.5467 237.71 91.12C237.198 90.6507 235.854 90.2027 233.678 89.776L234.062 87.728L242.318 86.896C242.616 86.896 242.915 87.4933 243.214 88.688C243.555 89.8827 243.726 90.928 243.726 91.824V92.208L244.238 92.4L245.006 91.504C247.694 88.3467 250.979 86.768 254.862 86.768C257.592 86.768 259.747 87.6 261.326 89.264C262.904 90.8853 263.694 93.168 263.694 96.112V113.392C263.694 113.904 263.8 114.245 264.014 114.416C264.27 114.544 264.59 114.651 264.974 114.736L268.11 115.504L267.854 118H254.158L253.774 115.504C255.694 115.12 256.867 114.693 257.294 114.224C257.72 113.755 257.934 112.965 257.934 111.856V98.032C257.934 96.0267 257.571 94.4267 256.846 93.232C256.12 91.9947 254.691 91.376 252.558 91.376C250.467 91.376 248.184 92.208 245.71 93.872C245.326 94.128 245.048 94.32 244.878 94.448C244.494 94.8747 244.302 95.664 244.302 96.816V113.328C244.302 113.797 244.366 114.117 244.494 114.288C244.664 114.459 245.027 114.608 245.582 114.736L248.398 115.504L248.142 118H234.446ZM272.571 118L272.187 115.504C274.277 115.077 275.536 114.651 275.963 114.224C276.432 113.755 276.667 112.965 276.667 111.856V93.424C276.667 92.3147 276.389 91.5467 275.835 91.12C275.323 90.6507 273.979 90.2027 271.803 89.776L272.187 87.728L280.443 86.896C280.741 86.896 281.04 87.4933 281.339 88.688C281.68 89.8827 281.851 90.928 281.851 91.824V92.208L282.363 92.4L283.131 91.504C285.819 88.3467 289.104 86.768 292.987 86.768C295.717 86.768 297.872 87.6 299.451 89.264C301.029 90.8853 301.819 93.168 301.819 96.112V113.392C301.819 113.904 301.925 114.245 302.139 114.416C302.395 114.544 302.715 114.651 303.099 114.736L306.235 115.504L305.979 118H292.283L291.899 115.504C293.819 115.12 294.992 114.693 295.419 114.224C295.845 113.755 296.059 112.965 296.059 111.856V98.032C296.059 96.0267 295.696 94.4267 294.971 93.232C294.245 91.9947 292.816 91.376 290.683 91.376C288.592 91.376 286.309 92.208 283.835 93.872C283.451 94.128 283.173 94.32 283.003 94.448C282.619 94.8747 282.427 95.664 282.427 96.816V113.328C282.427 113.797 282.491 114.117 282.619 114.288C282.789 114.459 283.152 114.608 283.707 114.736L286.523 115.504L286.267 118H272.571ZM324.072 118.576C319.464 118.576 315.922 117.211 313.448 114.48C310.973 111.749 309.736 107.931 309.736 103.024C309.736 98.1173 311.037 94.192 313.64 91.248C316.285 88.2613 319.912 86.768 324.52 86.768C329.17 86.768 332.733 88.1547 335.208 90.928C337.682 93.6587 338.92 97.4773 338.92 102.384C338.92 107.291 337.597 111.216 334.952 114.16C332.349 117.104 328.722 118.576 324.072 118.576ZM315.944 102.192C315.944 105.989 316.712 109.104 318.248 111.536C319.784 113.968 321.874 115.184 324.52 115.184C327.165 115.184 329.042 114.544 330.152 113.264C330.92 112.411 331.538 111.067 332.008 109.232C332.477 107.355 332.712 105.328 332.712 103.152C332.712 99.3547 331.944 96.24 330.408 93.808C328.872 91.376 326.781 90.16 324.135 90.16C321.49 90.16 319.613 90.8 318.504 92.08C317.736 92.9333 317.117 94.2987 316.648 96.176C316.178 98.0107 315.944 100.016 315.944 102.192ZM354.442 118.576L344.33 92.528C344.031 91.7173 343.732 91.2053 343.434 90.992C343.135 90.7787 342.303 90.5227 340.938 90.224L341.322 87.728H354.506L354.762 90.224L350.858 91.184C350.559 91.2267 350.41 91.3973 350.41 91.696C350.41 91.7387 350.495 92.016 350.666 92.528L356.426 108.656C356.938 110.149 357.194 111.323 357.194 112.176H357.706L364.81 94C365.066 93.3173 365.194 92.7627 365.194 92.336C365.194 91.8667 364.874 91.4827 364.234 91.184C363.636 90.8853 362.548 90.5653 360.97 90.224L361.354 87.728H372.746L373.002 90.224C371.636 90.5653 370.804 90.8 370.506 90.928C370.207 91.0133 370.036 91.1413 369.994 91.312L358.602 118.576H354.442ZM375.376 110.128C375.376 106.928 376.741 104.539 379.472 102.96C382.202 101.381 386.64 100.571 392.784 100.528V98.48C392.784 92.9333 390.778 90.16 386.768 90.16C384.848 90.16 383.632 90.4373 383.12 90.992C382.65 91.5467 382.138 93.36 381.584 96.432L378.128 96.048C377.786 94.7253 377.616 93.36 377.616 91.952C377.616 90.5013 377.637 89.5627 377.68 89.136C380.197 87.5573 383.504 86.768 387.6 86.768C391.696 86.768 394.533 87.5573 396.112 89.136C397.733 90.7147 398.544 93.3173 398.544 96.944V111.664C398.544 112.773 398.8 113.563 399.312 114.032C399.866 114.459 401.232 114.885 403.408 115.312L403.024 117.36L395.344 118.192C394.917 118.192 394.469 117.787 394 116.976C393.53 116.165 393.296 115.419 393.296 114.736C393.296 114.011 393.317 113.477 393.36 113.136L392.848 112.944L392.08 114.096C390.074 117.083 387.322 118.576 383.824 118.576C381.434 118.576 379.429 117.829 377.808 116.336C376.186 114.843 375.376 112.773 375.376 110.128ZM381.584 109.552C381.584 111.088 381.989 112.261 382.8 113.072C383.61 113.84 384.762 114.224 386.256 114.224C387.749 114.224 389.434 113.499 391.312 112.048C392.293 111.28 392.784 110.469 392.784 109.616V103.344C388.944 103.429 386.106 103.941 384.272 104.88C382.48 105.819 381.584 107.376 381.584 109.552ZM410.878 109.232V91.632H406.718L406.462 88.88L409.598 88.112C410.408 87.8987 410.942 87.4293 411.198 86.704C411.496 85.936 412.008 83.5467 412.734 79.536L416.638 79.152V87.728H425.534L425.022 90.736L416.638 91.696V107.312C416.638 111.749 418.003 113.968 420.734 113.968C422.27 113.968 423.891 113.328 425.598 112.048L426.942 113.904C424.638 117.019 421.822 118.576 418.494 118.576C416.104 118.576 414.227 117.744 412.862 116.08C411.539 114.416 410.878 112.133 410.878 109.232ZM430.821 118L430.437 115.504C432.527 115.077 433.786 114.651 434.213 114.224C434.682 113.755 434.917 112.965 434.917 111.856V93.488C434.917 92.592 434.575 91.952 433.893 91.568C433.21 91.1413 431.93 90.736 430.053 90.352L430.437 88.304C435.002 87.7067 438.181 87.408 439.973 87.408L440.677 88.048V113.392C440.677 113.904 440.783 114.245 440.997 114.416C441.253 114.544 441.573 114.651 441.957 114.736L445.093 115.504L444.837 118H430.821ZM440.741 76.016C440.741 77.0827 440.399 77.9787 439.717 78.704C439.077 79.4293 438.202 79.792 437.093 79.792C436.026 79.792 435.13 79.472 434.405 78.832C433.722 78.192 433.381 77.3173 433.381 76.208C433.381 75.056 433.701 74.1387 434.341 73.456C435.023 72.7733 435.941 72.432 437.093 72.432C439.525 72.432 440.741 73.6267 440.741 76.016ZM464.009 118.576C459.401 118.576 455.86 117.211 453.385 114.48C450.91 111.749 449.673 107.931 449.673 103.024C449.673 98.1173 450.974 94.192 453.577 91.248C456.222 88.2613 459.849 86.768 464.457 86.768C469.108 86.768 472.67 88.1547 475.145 90.928C477.62 93.6587 478.857 97.4773 478.857 102.384C478.857 107.291 477.534 111.216 474.889 114.16C472.286 117.104 468.66 118.576 464.009 118.576ZM455.881 102.192C455.881 105.989 456.649 109.104 458.185 111.536C459.721 113.968 461.812 115.184 464.457 115.184C467.102 115.184 468.98 114.544 470.089 113.264C470.857 112.411 471.476 111.067 471.945 109.232C472.414 107.355 472.649 105.328 472.649 103.152C472.649 99.3547 471.881 96.24 470.345 93.808C468.809 91.376 466.718 90.16 464.073 90.16C461.428 90.16 459.55 90.8 458.441 92.08C457.673 92.9333 457.054 94.2987 456.585 96.176C456.116 98.0107 455.881 100.016 455.881 102.192ZM483.883 118L483.499 115.504C485.59 115.077 486.848 114.651 487.275 114.224C487.744 113.755 487.979 112.965 487.979 111.856V93.424C487.979 92.3147 487.702 91.5467 487.147 91.12C486.635 90.6507 485.291 90.2027 483.115 89.776L483.499 87.728L491.755 86.896C492.054 86.896 492.352 87.4933 492.651 88.688C492.992 89.8827 493.163 90.928 493.163 91.824V92.208L493.675 92.4L494.443 91.504C497.131 88.3467 500.416 86.768 504.299 86.768C507.03 86.768 509.184 87.6 510.763 89.264C512.342 90.8853 513.131 93.168 513.131 96.112V113.392C513.131 113.904 513.238 114.245 513.451 114.416C513.707 114.544 514.027 114.651 514.411 114.736L517.547 115.504L517.291 118H503.595L503.211 115.504C505.131 115.12 506.304 114.693 506.731 114.224C507.158 113.755 507.371 112.965 507.371 111.856V98.032C507.371 96.0267 507.008 94.4267 506.283 93.232C505.558 91.9947 504.128 91.376 501.995 91.376C499.904 91.376 497.622 92.208 495.147 93.872C494.763 94.128 494.486 94.32 494.315 94.448C493.931 94.8747 493.739 95.664 493.739 96.816V113.328C493.739 113.797 493.803 114.117 493.931 114.288C494.102 114.459 494.464 114.608 495.019 114.736L497.835 115.504L497.579 118H483.883ZM581.408 101.744V116.016H552.032V101.744H581.408ZM547.36 122.928H552.032V120.304H581.408V122.928H586.272V97.456H547.36V122.928ZM550.688 85.232V89.456H582.752V85.232H550.688ZM563.872 64.624C558.88 72.816 548.192 82.544 537.056 88.176C538.144 89.2 539.424 90.864 540 91.952C550.944 86.128 561.312 77.04 566.56 69.232C572.512 77.424 583.712 86.384 593.632 91.568C594.464 90.224 595.616 88.56 596.768 87.472C586.72 82.928 575.456 74.032 568.672 64.624H563.872ZM639.072 93.808V105.904H622.304V93.808H639.072ZM643.552 110V89.776H617.888V114.608H622.304V110H643.552ZM646.944 78.96H614.688V83.12H646.944V78.96ZM656.992 67.76H604.512V123.056H609.12V72.304H652.32V116.912C652.32 117.936 651.936 118.32 650.784 118.384C649.696 118.448 645.984 118.448 641.952 118.32C642.72 119.6 643.488 121.648 643.68 122.992C649.184 122.992 652.384 122.864 654.368 122.096C656.288 121.264 656.992 119.856 656.992 116.912V67.76ZM668.576 100.784H685.408C683.68 105.456 680.928 111.28 678.496 115.696C675.04 115.824 671.84 115.888 669.088 115.952L669.728 120.624C680.672 120.24 697.248 119.536 712.928 118.768C714.144 120.304 715.104 121.776 715.872 123.056L720.16 120.432C717.216 115.696 711.008 108.784 705.12 103.728L701.088 105.904C703.904 108.4 706.912 111.536 709.536 114.544C700.576 114.928 691.552 115.248 683.616 115.504C686.176 111.024 688.928 105.52 691.168 100.784H721.184V96.368H668.576V100.784ZM679.456 84.208V88.56H709.728V84.208H679.456ZM691.744 64.56C686.816 72.688 676.192 81.904 665.248 87.152C666.272 88.112 667.488 89.84 668 90.928C678.88 85.552 689.248 76.784 694.432 69.104C700.384 77.36 711.584 85.872 721.44 90.672C722.272 89.264 723.424 87.6 724.512 86.448C714.464 82.288 703.328 73.968 696.608 64.56H691.744ZM756.192 100.656C754.592 99.248 748.96 94.32 745.952 91.952C749.344 87.664 752.288 82.928 754.272 78L751.584 76.208L750.752 76.4H745.184V64.496H740.512V76.4H730.464V80.752H748.256C743.84 89.264 735.84 97.328 728.224 101.744C728.992 102.64 730.208 104.816 730.72 106.032C733.984 103.92 737.312 101.232 740.512 98.032V122.864H745.184V96.368C748.064 99.056 751.584 102.64 753.248 104.496L756.192 100.656ZM773.6 116.4V89.84H787.232V85.232H773.6V64.944H768.864V85.232H755.168V89.84H768.864V116.4H752.672V121.072H788.512V116.4H773.6Z" fill="white"/>
</svg>
