<svg width="884" height="324" viewBox="0 0 884 324" fill="none" xmlns="http://www.w3.org/2000/svg">
<rect width="884" height="324" fill="#E5E5E5"/>
<rect width="884" height="324" fill="#1F2937"/>
<path d="M87.264 185.336C85.68 186.152 83.376 186.92 80.352 187.64C77.376 188.312 74.328 188.648 71.208 188.648C63.384 188.648 57.48 186.344 53.496 181.736C49.512 177.128 47.52 171.272 47.52 164.168C47.52 158.696 48.648 153.824 50.904 149.552C53.544 144.512 57.504 141.008 62.784 139.04C65.712 137.984 68.76 137.456 71.928 137.456C75.096 137.456 78.144 137.696 81.072 138.176C84 138.656 85.92 139.088 86.832 139.472C87.12 141.248 87.264 143.12 87.264 145.088C87.264 147.008 87.216 149.168 87.12 151.568L83.016 152.144C81.96 146.576 81.024 143.504 80.208 142.928C79.776 142.592 78.648 142.232 76.824 141.848C75.048 141.464 73.272 141.272 71.496 141.272C66.216 141.272 62.232 143.216 59.544 147.104C56.856 150.992 55.512 156.104 55.512 162.44C55.512 169.928 57.216 175.496 60.624 179.144C64.032 182.792 68.256 184.616 73.296 184.616C75.936 184.616 78.264 184.232 80.28 183.464V173.456C80.28 171.968 79.992 170.96 79.416 170.432C78.888 169.904 77.352 169.424 74.808 168.992L75.24 166.184H92.088L92.376 168.992L88.704 169.856C87.744 170.048 87.264 170.672 87.264 171.728V185.336ZM97.3918 188L96.9598 185.192C99.3118 184.712 100.728 184.232 101.208 183.752C101.736 183.224 102 182.336 102 181.088V160.424C102 159.416 101.616 158.696 100.848 158.264C100.08 157.784 98.6398 157.328 96.5278 156.896L96.9598 154.592C102.096 153.92 105.672 153.584 107.688 153.584L108.48 154.304V182.816C108.48 183.392 108.6 183.776 108.84 183.968C109.128 184.112 109.488 184.232 109.92 184.328L113.448 185.192L113.16 188H97.3918ZM108.552 140.768C108.552 141.968 108.168 142.976 107.4 143.792C106.68 144.608 105.696 145.016 104.448 145.016C103.248 145.016 102.24 144.656 101.424 143.936C100.656 143.216 100.272 142.232 100.272 140.984C100.272 139.688 100.632 138.656 101.352 137.888C102.12 137.12 103.152 136.736 104.448 136.736C107.184 136.736 108.552 138.08 108.552 140.768ZM146.753 134.072C146.753 137.72 146.441 140.624 145.817 142.784L142.001 143.144C141.233 139.256 140.657 137.192 140.273 136.952C139.505 136.472 138.497 136.232 137.249 136.232C133.121 136.232 131.057 142.304 131.057 154.448H145.457C146.897 154.448 147.737 153.896 147.977 152.792C147.977 152.264 148.193 151.112 148.625 149.336C149.105 147.512 149.465 145.976 149.705 144.728L154.097 144.296V154.448H164.033L163.457 157.832L154.097 158.912V175.976C154.097 180.968 155.633 183.464 158.705 183.464C160.433 183.464 162.257 182.744 164.177 181.304L165.689 183.392C163.097 186.896 159.929 188.648 156.185 188.648C153.497 188.648 151.385 187.712 149.849 185.84C148.361 183.968 147.617 181.4 147.617 178.136V158.336C140.417 158.336 134.897 158.528 131.057 158.912V182.816C131.057 183.296 131.153 183.656 131.345 183.896C131.537 184.088 131.969 184.232 132.641 184.328L138.041 185.192L137.753 188H119.969L119.537 185.192C121.889 184.712 123.305 184.232 123.785 183.752C124.313 183.224 124.577 182.336 124.577 181.088V158.84H119.897L119.609 155.744L123.137 154.88C123.761 154.736 124.169 154.472 124.361 154.088C124.553 153.704 124.673 153.056 124.721 152.144C124.769 151.232 124.841 150.344 124.937 149.48C125.081 148.616 125.297 147.296 125.585 145.52C125.873 143.744 126.329 142.184 126.953 140.84C127.625 139.496 128.441 138.128 129.401 136.736C131.417 133.856 134.465 132.416 138.545 132.416C141.137 132.416 143.873 132.968 146.753 134.072ZM187.959 188L187.527 185.192C190.071 184.76 191.607 184.28 192.135 183.752C192.711 183.224 192.999 182.216 192.999 180.728V145.376C192.999 143.888 192.711 142.88 192.135 142.352C191.607 141.824 190.071 141.344 187.527 140.912L187.959 138.104H205.599L205.887 140.912L201.423 141.776C200.463 141.968 199.983 142.592 199.983 143.648V182.456C199.983 183.512 200.463 184.136 201.423 184.328L205.887 185.192L205.599 188H187.959ZM212.001 188L211.569 185.192C213.921 184.712 215.337 184.232 215.817 183.752C216.345 183.224 216.609 182.336 216.609 181.088V160.352C216.609 159.104 216.297 158.24 215.673 157.76C215.097 157.232 213.585 156.728 211.137 156.248L211.569 153.944L220.857 153.008C221.193 153.008 221.529 153.68 221.865 155.024C222.249 156.368 222.441 157.544 222.441 158.552V158.984L223.017 159.2L223.881 158.192C226.905 154.64 230.601 152.864 234.969 152.864C238.041 152.864 240.465 153.8 242.241 155.672C244.017 157.496 244.905 160.064 244.905 163.376V182.816C244.905 183.392 245.025 183.776 245.265 183.968C245.553 184.112 245.913 184.232 246.345 184.328L249.873 185.192L249.585 188H234.177L233.745 185.192C235.905 184.76 237.225 184.28 237.705 183.752C238.185 183.224 238.425 182.336 238.425 181.088V165.536C238.425 163.28 238.017 161.48 237.201 160.136C236.385 158.744 234.777 158.048 232.377 158.048C230.025 158.048 227.457 158.984 224.673 160.856C224.241 161.144 223.929 161.36 223.737 161.504C223.305 161.984 223.089 162.872 223.089 164.168V182.744C223.089 183.272 223.161 183.632 223.305 183.824C223.497 184.016 223.905 184.184 224.529 184.328L227.697 185.192L227.409 188H212.001ZM254.892 188L254.46 185.192C256.812 184.712 258.228 184.232 258.708 183.752C259.236 183.224 259.5 182.336 259.5 181.088V160.352C259.5 159.104 259.188 158.24 258.564 157.76C257.988 157.232 256.476 156.728 254.028 156.248L254.46 153.944L263.748 153.008C264.084 153.008 264.42 153.68 264.756 155.024C265.14 156.368 265.332 157.544 265.332 158.552V158.984L265.908 159.2L266.772 158.192C269.796 154.64 273.492 152.864 277.86 152.864C280.932 152.864 283.356 153.8 285.132 155.672C286.908 157.496 287.796 160.064 287.796 163.376V182.816C287.796 183.392 287.916 183.776 288.156 183.968C288.444 184.112 288.804 184.232 289.236 184.328L292.764 185.192L292.476 188H277.068L276.636 185.192C278.796 184.76 280.116 184.28 280.596 183.752C281.076 183.224 281.316 182.336 281.316 181.088V165.536C281.316 163.28 280.908 161.48 280.092 160.136C279.276 158.744 277.668 158.048 275.268 158.048C272.916 158.048 270.348 158.984 267.564 160.856C267.132 161.144 266.82 161.36 266.628 161.504C266.196 161.984 265.98 162.872 265.98 164.168V182.744C265.98 183.272 266.052 183.632 266.196 183.824C266.388 184.016 266.796 184.184 267.42 184.328L270.588 185.192L270.3 188H254.892ZM312.83 188.648C307.646 188.648 303.662 187.112 300.878 184.04C298.094 180.968 296.702 176.672 296.702 171.152C296.702 165.632 298.166 161.216 301.094 157.904C304.07 154.544 308.15 152.864 313.334 152.864C318.566 152.864 322.574 154.424 325.358 157.544C328.142 160.616 329.534 164.912 329.534 170.432C329.534 175.952 328.046 180.368 325.07 183.68C322.142 186.992 318.062 188.648 312.83 188.648ZM303.686 170.216C303.686 174.488 304.55 177.992 306.278 180.728C308.006 183.464 310.358 184.832 313.334 184.832C316.31 184.832 318.422 184.112 319.67 182.672C320.534 181.712 321.23 180.2 321.758 178.136C322.286 176.024 322.55 173.744 322.55 171.296C322.55 167.024 321.686 163.52 319.958 160.784C318.23 158.048 315.878 156.68 312.902 156.68C309.926 156.68 307.814 157.4 306.566 158.84C305.702 159.8 305.006 161.336 304.478 163.448C303.95 165.512 303.686 167.768 303.686 170.216ZM346.997 188.648L335.621 159.344C335.285 158.432 334.949 157.856 334.613 157.616C334.277 157.376 333.341 157.088 331.805 156.752L332.237 153.944H347.069L347.357 156.752L342.965 157.832C342.629 157.88 342.461 158.072 342.461 158.408C342.461 158.456 342.557 158.768 342.749 159.344L349.229 177.488C349.805 179.168 350.093 180.488 350.093 181.448H350.669L358.661 161C358.949 160.232 359.093 159.608 359.093 159.128C359.093 158.6 358.733 158.168 358.013 157.832C357.341 157.496 356.117 157.136 354.341 156.752L354.773 153.944H367.589L367.877 156.752C366.341 157.136 365.405 157.4 365.069 157.544C364.733 157.64 364.541 157.784 364.493 157.976L351.677 188.648H346.997ZM370.547 179.144C370.547 175.544 372.083 172.856 375.155 171.08C378.227 169.304 383.219 168.392 390.131 168.344V166.04C390.131 159.8 387.875 156.68 383.363 156.68C381.203 156.68 379.835 156.992 379.259 157.616C378.731 158.24 378.155 160.28 377.531 163.736L373.643 163.304C373.259 161.816 373.067 160.28 373.067 158.696C373.067 157.064 373.091 156.008 373.139 155.528C375.971 153.752 379.691 152.864 384.299 152.864C388.907 152.864 392.099 153.752 393.875 155.528C395.699 157.304 396.611 160.232 396.611 164.312V180.872C396.611 182.12 396.899 183.008 397.475 183.536C398.099 184.016 399.635 184.496 402.083 184.976L401.651 187.28L393.011 188.216C392.531 188.216 392.027 187.76 391.499 186.848C390.971 185.936 390.707 185.096 390.707 184.328C390.707 183.512 390.731 182.912 390.779 182.528L390.203 182.312L389.339 183.608C387.083 186.968 383.987 188.648 380.051 188.648C377.363 188.648 375.107 187.808 373.283 186.128C371.459 184.448 370.547 182.12 370.547 179.144ZM377.531 178.496C377.531 180.224 377.987 181.544 378.899 182.456C379.811 183.32 381.107 183.752 382.787 183.752C384.467 183.752 386.363 182.936 388.475 181.304C389.579 180.44 390.131 179.528 390.131 178.568V171.512C385.811 171.608 382.619 172.184 380.555 173.24C378.539 174.296 377.531 176.048 377.531 178.496ZM410.487 178.136V158.336H405.807L405.519 155.24L409.047 154.376C409.959 154.136 410.559 153.608 410.847 152.792C411.183 151.928 411.759 149.24 412.575 144.728L416.967 144.296V153.944H426.975L426.399 157.328L416.967 158.408V175.976C416.967 180.968 418.503 183.464 421.575 183.464C423.303 183.464 425.127 182.744 427.047 181.304L428.559 183.392C425.967 186.896 422.799 188.648 419.055 188.648C416.367 188.648 414.255 187.712 412.719 185.84C411.231 183.968 410.487 181.4 410.487 178.136ZM432.923 188L432.491 185.192C434.843 184.712 436.259 184.232 436.739 183.752C437.267 183.224 437.531 182.336 437.531 181.088V160.424C437.531 159.416 437.147 158.696 436.379 158.264C435.611 157.784 434.171 157.328 432.059 156.896L432.491 154.592C437.627 153.92 441.203 153.584 443.219 153.584L444.011 154.304V182.816C444.011 183.392 444.131 183.776 444.371 183.968C444.659 184.112 445.019 184.232 445.451 184.328L448.979 185.192L448.691 188H432.923ZM444.083 140.768C444.083 141.968 443.699 142.976 442.931 143.792C442.211 144.608 441.227 145.016 439.979 145.016C438.779 145.016 437.771 144.656 436.955 143.936C436.187 143.216 435.803 142.232 435.803 140.984C435.803 139.688 436.163 138.656 436.883 137.888C437.651 137.12 438.683 136.736 439.979 136.736C442.715 136.736 444.083 138.08 444.083 140.768ZM470.26 188.648C465.076 188.648 461.092 187.112 458.308 184.04C455.524 180.968 454.132 176.672 454.132 171.152C454.132 165.632 455.596 161.216 458.524 157.904C461.5 154.544 465.58 152.864 470.764 152.864C475.996 152.864 480.004 154.424 482.788 157.544C485.572 160.616 486.964 164.912 486.964 170.432C486.964 175.952 485.476 180.368 482.5 183.68C479.572 186.992 475.492 188.648 470.26 188.648ZM461.116 170.216C461.116 174.488 461.98 177.992 463.708 180.728C465.436 183.464 467.788 184.832 470.764 184.832C473.74 184.832 475.852 184.112 477.1 182.672C477.964 181.712 478.66 180.2 479.188 178.136C479.716 176.024 479.98 173.744 479.98 171.296C479.98 167.024 479.116 163.52 477.388 160.784C475.66 158.048 473.308 156.68 470.332 156.68C467.356 156.68 465.244 157.4 463.996 158.84C463.132 159.8 462.436 161.336 461.908 163.448C461.38 165.512 461.116 167.768 461.116 170.216ZM492.618 188L492.186 185.192C494.538 184.712 495.954 184.232 496.434 183.752C496.962 183.224 497.226 182.336 497.226 181.088V160.352C497.226 159.104 496.914 158.24 496.29 157.76C495.714 157.232 494.202 156.728 491.754 156.248L492.186 153.944L501.474 153.008C501.81 153.008 502.146 153.68 502.482 155.024C502.866 156.368 503.058 157.544 503.058 158.552V158.984L503.634 159.2L504.498 158.192C507.522 154.64 511.218 152.864 515.586 152.864C518.658 152.864 521.082 153.8 522.858 155.672C524.634 157.496 525.522 160.064 525.522 163.376V182.816C525.522 183.392 525.642 183.776 525.882 183.968C526.17 184.112 526.53 184.232 526.962 184.328L530.49 185.192L530.202 188H514.794L514.362 185.192C516.522 184.76 517.842 184.28 518.322 183.752C518.802 183.224 519.042 182.336 519.042 181.088V165.536C519.042 163.28 518.634 161.48 517.818 160.136C517.002 158.744 515.394 158.048 512.994 158.048C510.642 158.048 508.074 158.984 505.29 160.856C504.858 161.144 504.546 161.36 504.354 161.504C503.922 161.984 503.706 162.872 503.706 164.168V182.744C503.706 183.272 503.778 183.632 503.922 183.824C504.114 184.016 504.522 184.184 505.146 184.328L508.314 185.192L508.026 188H492.618ZM602.333 169.712V185.768H569.285V169.712H602.333ZM564.029 193.544H569.285V190.592H602.333V193.544H607.805V164.888H564.029V193.544ZM567.773 151.136V155.888H603.845V151.136H567.773ZM582.605 127.952C576.989 137.168 564.965 148.112 552.437 154.448C553.661 155.6 555.101 157.472 555.749 158.696C568.061 152.144 579.725 141.92 585.629 133.136C592.325 142.352 604.925 152.432 616.085 158.264C617.021 156.752 618.317 154.88 619.613 153.656C608.309 148.544 595.637 138.536 588.005 127.952H582.605ZM667.205 160.784V174.392H648.341V160.784H667.205ZM672.245 179V156.248H643.373V184.184H648.341V179H672.245ZM676.061 144.08H639.773V148.76H676.061V144.08ZM687.365 131.48H628.325V193.688H633.509V136.592H682.109V186.776C682.109 187.928 681.677 188.36 680.381 188.432C679.157 188.504 674.981 188.504 670.445 188.36C671.309 189.8 672.173 192.104 672.389 193.616C678.581 193.616 682.181 193.472 684.413 192.608C686.573 191.672 687.365 190.088 687.365 186.776V131.48ZM700.397 168.632H719.333C717.389 173.888 714.293 180.44 711.557 185.408C707.669 185.552 704.069 185.624 700.973 185.696L701.693 190.952C714.005 190.52 732.653 189.728 750.293 188.864C751.661 190.592 752.741 192.248 753.605 193.688L758.429 190.736C755.117 185.408 748.133 177.632 741.509 171.944L736.973 174.392C740.141 177.2 743.525 180.728 746.477 184.112C736.397 184.544 726.245 184.904 717.317 185.192C720.197 180.152 723.293 173.96 725.813 168.632H759.581V163.664H700.397V168.632ZM712.637 149.984V154.88H746.693V149.984H712.637ZM726.461 127.88C720.917 137.024 708.965 147.392 696.653 153.296C697.805 154.376 699.173 156.32 699.749 157.544C711.989 151.496 723.653 141.632 729.485 132.992C736.181 142.28 748.781 151.856 759.869 157.256C760.805 155.672 762.101 153.8 763.325 152.504C752.021 147.824 739.493 138.464 731.933 127.88H726.461ZM798.965 168.488C797.165 166.904 790.829 161.36 787.445 158.696C791.261 153.872 794.573 148.544 796.805 143L793.781 140.984L792.845 141.2H786.581V127.808H781.325V141.2H770.021V146.096H790.037C785.069 155.672 776.069 164.744 767.501 169.712C768.365 170.72 769.733 173.168 770.309 174.536C773.981 172.16 777.725 169.136 781.325 165.536V193.472H786.581V163.664C789.821 166.688 793.781 170.72 795.653 172.808L798.965 168.488ZM818.549 186.2V156.32H833.885V151.136H818.549V128.312H813.221V151.136H797.813V156.32H813.221V186.2H795.005V191.456H835.325V186.2H818.549Z" fill="white"/>
</svg>
