<svg width="160" height="147" viewBox="0 0 160 147" fill="none" xmlns="http://www.w3.org/2000/svg">
<rect width="160" height="147" fill="#E5E5E5"/>
<g clip-path="url(#clip0)">
<rect width="160" height="147" fill="#1F2937"/>
<path d="M60.264 99.336C58.68 100.152 56.376 100.92 53.352 101.64C50.376 102.312 47.328 102.648 44.208 102.648C36.384 102.648 30.48 100.344 26.496 95.736C22.512 91.128 20.52 85.272 20.52 78.168C20.52 72.696 21.648 67.824 23.904 63.552C26.544 58.512 30.504 55.008 35.784 53.04C38.712 51.984 41.76 51.456 44.928 51.456C48.096 51.456 51.144 51.696 54.072 52.176C57 52.656 58.92 53.088 59.832 53.472C60.12 55.248 60.264 57.12 60.264 59.088C60.264 61.008 60.216 63.168 60.12 65.568L56.016 66.144C54.96 60.576 54.024 57.504 53.208 56.928C52.776 56.592 51.648 56.232 49.824 55.848C48.048 55.464 46.272 55.272 44.496 55.272C39.216 55.272 35.232 57.216 32.544 61.104C29.856 64.992 28.512 70.104 28.512 76.44C28.512 83.928 30.216 89.496 33.624 93.144C37.032 96.792 41.256 98.616 46.296 98.616C48.936 98.616 51.264 98.232 53.28 97.464V87.456C53.28 85.968 52.992 84.96 52.416 84.432C51.888 83.904 50.352 83.424 47.808 82.992L48.24 80.184H65.088L65.376 82.992L61.704 83.856C60.744 84.048 60.264 84.672 60.264 85.728V99.336ZM70.3918 102L69.9598 99.192C72.3118 98.712 73.7278 98.232 74.2078 97.752C74.7358 97.224 74.9998 96.336 74.9998 95.088V74.424C74.9998 73.416 74.6158 72.696 73.8478 72.264C73.0798 71.784 71.6398 71.328 69.5278 70.896L69.9598 68.592C75.0958 67.92 78.6718 67.584 80.6878 67.584L81.4798 68.304V96.816C81.4798 97.392 81.5998 97.776 81.8398 97.968C82.1278 98.112 82.4878 98.232 82.9198 98.328L86.4478 99.192L86.1598 102H70.3918ZM81.5518 54.768C81.5518 55.968 81.1678 56.976 80.3998 57.792C79.6798 58.608 78.6958 59.016 77.4478 59.016C76.2478 59.016 75.2398 58.656 74.4238 57.936C73.6558 57.216 73.2718 56.232 73.2718 54.984C73.2718 53.688 73.6318 52.656 74.3518 51.888C75.1198 51.12 76.1518 50.736 77.4478 50.736C80.1838 50.736 81.5518 52.08 81.5518 54.768ZM119.753 48.072C119.753 51.72 119.441 54.624 118.817 56.784L115.001 57.144C114.233 53.256 113.657 51.192 113.273 50.952C112.505 50.472 111.497 50.232 110.249 50.232C106.121 50.232 104.057 56.304 104.057 68.448H118.457C119.897 68.448 120.737 67.896 120.977 66.792C120.977 66.264 121.193 65.112 121.625 63.336C122.105 61.512 122.465 59.976 122.705 58.728L127.097 58.296V68.448H137.033L136.457 71.832L127.097 72.912V89.976C127.097 94.968 128.633 97.464 131.705 97.464C133.433 97.464 135.257 96.744 137.177 95.304L138.689 97.392C136.097 100.896 132.929 102.648 129.185 102.648C126.497 102.648 124.385 101.712 122.849 99.84C121.361 97.968 120.617 95.4 120.617 92.136V72.336C113.417 72.336 107.897 72.528 104.057 72.912V96.816C104.057 97.296 104.153 97.656 104.345 97.896C104.537 98.088 104.969 98.232 105.641 98.328L111.041 99.192L110.753 102H92.9689L92.5369 99.192C94.8889 98.712 96.3049 98.232 96.7849 97.752C97.3129 97.224 97.5769 96.336 97.5769 95.088V72.84H92.8969L92.6089 69.744L96.1369 68.88C96.7609 68.736 97.1689 68.472 97.3609 68.088C97.5529 67.704 97.6729 67.056 97.7209 66.144C97.7689 65.232 97.8409 64.344 97.9369 63.48C98.0809 62.616 98.2969 61.296 98.5849 59.52C98.8729 57.744 99.3289 56.184 99.9529 54.84C100.625 53.496 101.441 52.128 102.401 50.736C104.417 47.856 107.465 46.416 111.545 46.416C114.137 46.416 116.873 46.968 119.753 48.072Z" fill="white"/>
</g>
<defs>
<clipPath id="clip0">
<rect width="160" height="147" fill="white"/>
</clipPath>
</defs>
</svg>
